<?xml version="1.0" encoding="utf-8"?>
<!-- Generator: Adobe Illustrator 29.4.0, SVG Export Plug-In . SVG Version: 9.03 Build 0)  -->
<svg version="1.0" id="Layer_1" xmlns="http://www.w3.org/2000/svg" xmlns:xlink="http://www.w3.org/1999/xlink" x="0px" y="0px"
	 width="1200px" height="400px" viewBox="0 0 1200 400" style="enable-background:new 0 0 1200 400;" xml:space="preserve">
<style type="text/css">
	.st0{fill:#30312C;}
</style>
<g>
	<g>
		<path class="st0" d="M159.7,200c0-19.9,13.7-33,30.2-33c18.8,0,29.6,13.2,29.6,31.9v3.5h-50.2c0.1,13.9,8.3,21.7,21.2,21.7
			c8.8,0,16.8-5,18.8-13.7l9.2,2.2c-3.5,11.6-13.8,19.9-28.2,19.9C171.5,232.5,159.7,219.2,159.7,200z M209.8,194.7
			c-0.6-13-9.6-19.2-19.9-19.2c-10.2,0-19.6,7.4-20.3,19.2H209.8z"/>
		<path class="st0" d="M269.9,199.9c0-19.2,12.1-32.9,29.8-32.9c13.1,0,19.4,8.4,21.4,11.6h0.7V141h9.5v90h-9.1v-9.8h-0.7
			c-1.6,2.3-7.4,11.4-21,11.4C282.6,232.5,269.9,219,269.9,199.9z M322.1,200c0-15.5-9.6-24.4-21.4-24.4
			c-12.2,0-21.1,10.1-21.1,24.4c0,14.5,9.2,24,21.4,24C314,224,322.1,213,322.1,200z"/>
		<path class="st0" d="M400.6,249.8h27.1c6.6,0,9.4-3.2,9.4-10v-19h-0.7c-2,3.8-8.3,11.6-21.4,11.6c-17.6,0-29.8-13.6-29.8-32.9
			c0-19.1,12.7-32.6,30.5-32.6c13.6,0,19.4,9.1,21,11.4h0.7v-9.8h9.1v72.2c0,12.6-7.6,17.8-19,17.8h-27V249.8z M437.4,199.7
			c0-13.1-8.2-24-21.1-24c-12,0-21.4,9.4-21.4,24c0,14.3,8.9,24.2,21.1,24.2C427.8,223.9,437.4,215,437.4,199.7z"/>
		<path class="st0" d="M500.6,200c0-19.9,13.7-33,30.2-33c18.8,0,29.6,13.2,29.6,31.9v3.5h-50.2c0.1,13.9,8.3,21.7,21.2,21.7
			c8.8,0,16.8-5,18.8-13.7l9.2,2.2c-3.5,11.6-13.8,19.9-28.2,19.9C512.4,232.5,500.6,219.2,500.6,200z M550.7,194.7
			c-0.6-13-9.6-19.2-19.9-19.2c-10.2,0-19.6,7.4-20.3,19.2H550.7z"/>
		<path class="st0" d="M615.6,141h9.5v51.7H636l17.6-24.1h10.9l-20.5,27.6v0.7l22.1,34.1h-11.3l-18.5-29.6h-11.3V231h-9.5V141z"/>
		<path class="st0" d="M717.8,168.6h9.4V179h0.7c1.8-5.3,7.9-12,17-12h4.1v9.5h-5.6c-11.4,0-16.1,9.2-16.1,21.1V231h-9.5V168.6z"/>
		<path class="st0" d="M795.8,199.9c0-19.2,12-32.9,29.8-32.9c13,0,19.4,8.4,21.2,11.6h0.7v-10.1h9.6v51.1c0,1.9,1.2,2.9,3.1,2.9
			h2.9v8.4H857c-5.2,0-9-3.8-9.1-9.2v-0.6h-0.7c-1.6,2.5-7.3,11.4-20.9,11.4C808.4,232.5,795.8,219,795.8,199.9z M847.8,200
			c0-15.5-9.6-24.4-21.2-24.4c-12.2,0-21.1,10.1-21.1,24.4c0,14.5,9.2,24,21.2,24C839.8,224,847.8,213.1,847.8,200z"/>
		<path class="st0" d="M924,176.6h-11.8v-8H924v-9.8c0-12.6,7.6-17.8,19-17.8h8.3v8.3h-8.4c-6.6,0-9.4,2.9-9.4,9.6v9.7h18.2v8h-18.2
			V231H924V176.6z"/>
		<path class="st0" d="M1012.1,213.2v-36.6h-11.8v-8h12.4v-18.1h8.9v18.1h19.2v8h-19.2v36.5c0,6.7,2.8,9.6,9.4,9.6h9v8.3h-8.9
			C1019.7,231,1012.1,225.8,1012.1,213.2z"/>
	</g>
	<rect x="177.4" y="249.8" class="st0" width="24.3" height="8.8"/>
	<rect x="814.5" y="141" class="st0" width="24.3" height="8.8"/>
</g>
</svg>
